<svg width="1332" height="1306" viewBox="0 0 1332 1306" fill="none" xmlns="http://www.w3.org/2000/svg">
<path fill-rule="evenodd" clip-rule="evenodd" d="M1007.57 987.13C902.631 1091.56 782.056 1208.06 635.577 1186.66C492.801 1165.8 427.163 1012.55 349.407 890.98C271.548 769.244 154.86 643.742 200.687 506.69C246.663 369.193 380.19 326.392 520.5 290C712 259.5 793.282 269.146 905.636 323.85C1038.51 388.545 1192.08 464.446 1214.53 610.545C1237.42 759.5 1114.39 880.84 1007.57 987.13Z" fill="#112F52"/>
<path fill-rule="evenodd" clip-rule="evenodd" d="M974.621 980.047C873.879 1080.19 758.047 1191.82 613.313 1167.16C472.239 1143.12 403.842 990.747 324.297 869.231C244.646 747.554 126.676 621.216 168.414 487.521C210.288 353.392 340.688 314.579 477.924 282.239C665.7 256.956 745.958 268.45 857.918 325.035C990.325 391.954 1143.38 470.408 1169.08 614.685C1195.29 761.784 1077.16 878.118 974.621 980.047Z" fill="#175CAD"/>
</svg>
